<svg xmlns="http://www.w3.org/2000/svg" viewBox="0 0 16 16">
	<path d="M15.2381,4.93v7.2381H14.157l-2.227-.7426-2.4963-.0194L8.381,11.933V11.26l1.2329-.6162h2.1339l2.7284.9093v-7.66L11.93,3.0446,9.4338,3.0253,8,3.7426,6.5662,3.0253H4.19l-2.6667.8686v7.66l2.7285-.9093H6.3861L7.619,11.26v.6725l-1.0528-.5267H4.19l-2.3475.7619H.7619V4.93H0v8H1.9048l2.3475-.7619H6.3861L8,12.9747l1.6139-.8066h2.1339l2.227.7426L16,12.93v-8ZM9.6139,3.7872h.2909v4.19h.7619v-4.19h1.0811l1.9666.6552v6.0543L11.93,9.9016,9.4338,9.8824l-1.0528.5267V4.4034ZM6.5662,9.8824H4.1287l-1.843.6146V4.4424l1.9666-.6552H6.3861l1.2329.6162v6.0058Z"/>
</svg>
