<svg xmlns="http://www.w3.org/2000/svg" viewBox="0 0 24 24">
	<path d="M21.5,9v9.5H20.0811l-2.9229-.9746L13.8818,17.5,12.5,18.1913v-.8826L14.1182,16.5h2.8008L20.5,17.6934V7.64L17.1582,6.5254,13.8818,6.5,12,7.4414,10.1182,6.5H7L3.5,7.64V17.6934L7.0811,16.5H9.8818l1.6182.8087v.8826L10.1182,17.5H7l-3.0811,1H2.5V9h-1V19.5H4l3.0811-1H9.8818L12,19.5586,14.1182,18.5h2.8008l2.9229.9746L22.5,19.5V9ZM14.1182,7.5H14.5V13h1V7.5h1.4189L19.5,8.36v7.9463l-2.3418-.7812L13.8818,15.5,12.5,16.1913V8.3087Zm-4,8H6.9189L4.5,16.3066V8.36L7.0811,7.5H9.8818L11.5,8.3087v7.8826Z"/>
</svg>
